**ABCDEFGHIJKLMNOPQRSTUVWXYZabcdefghijklmnopqrstuvwxyz**************************
**PARASOLID !"#$%&'()*+,-./:;<=>?@[\]^_`{|}~0123456789**************************
**PART1;
MC=x64/Windows NT;
MC_MODEL=genuineintel family 6 model 10 stepping 9, intel(r) core(tm) i7-3720qm cpu @ 2.60ghz;
MC_ID=olnlxvg0b;
OS=windows nt (x64);
OS_RELEASE=6.1 (workstation) (build 7601: service pack 1) ;
FRU=mdc_ugii_v7.0_djl_can_vrh;
APPL=unigraphics;
SITE=unknown;
USER=ddalfonso;
FORMAT=text;
GUISE=transmit;
KEY=1000218773 13August13;
FILE=C:\Users\ddalfonso\Desktop\Complete Castings\Nathan Olean 30 Castings\Small Castings\Good\1000218773\1000218773 13August13.x_t;
DATE=13-aug-2013;
**PART2;
SCH=SCH_1901374_19008;
USFLD_SIZE=0;
**PART3;
**END_OF_HEADER*****************************************************************
T51 : TRANSMIT FILE created by modeller version 190137423 SCH_1901374_19008_1300
6186 0 12 27 CCCCCCCCCCCCCCCCCCCCCCCA16 index_map_offset0 0 1 dA9 index_map82 0
 A17 node_id_index_map82 0 A20 schema_embedding_map82 0 Z1 874 2 3 0 0 0 0 1e3 1
e-8 0 0 0 1 0 1 1 4 5 6 0 7 8 0 0 0 0 0 81 255 2 2 808 9 1 0 0 0 0 10 11 70 11 C
I9 list_type0 0 1 uI10 notransmit0 0 1 lCCCDCCDI12 finger_index0 0 1 dI12 finger
_block1012 0 CZ3 0 4 T1 0 0 3 20 1 12 12 13 255 4 3 0 1 0 13 0 0 14 0 54 255 5 7
98 0 1 15 0 16 -0 -.2032 0 -1 0 0 .2032 .1158875 0 0 1 38 255 6 801 0 1 17 0 18
 +15 5 19 20 20 19 255 7 20 0 1 14 0 21 V16 255 8 759 0 ?22 0 23 24 0 0 1 17 255
 22 0 25 22 22 0 26 8 0 0 +16 23 750 0 ?27 8 28 29 0 0 1 38 24 762 0 8 29 17 0 +
30 31 32 33 33 38 29 753 0 23 34 24 0 +35 36 37 38 38 38 17 785 0 1 24 6 39 -40
 41 42 43 43 59 255 30 763 0 1 35 44 45 +0 46 54 31 38 0 47 48 49 50 -0 -.2032 0
 -1 0 0 .2032 .1095375 0 0 1 40 255 21 32 0 1 21 .00274981146745099 .35793461686
49385 ??-.04111223999535435 -.00160071385653716 .228512189573894 -.0446901810258
9405 .0071975806029396 .218327490086011 -.0440218645174036 .01820135493974855 .2
075934722500565 -.03877013653553865 .02905855299205005 .1986854594210085 -.02925
67260513643 .03877397582110055 .191781505675708 -.0161349387696158 .045744865801
7013 .1873106253585775 -.00125851950686278 .0484515068644361 .1856656695101765 .
01333164684612348 .0466261513823111 .1867698258115005 .0263815143824574 .0407713
630665805 .190463502561125 .03685503678895165 .0315573943779284 .196824855766135
 .0430372741094157 .0211786512699045 .205004470961272 .0449982779836687 .0101878
891997623 .2152111191360725 .04224676679084975 .0002352181221463855 .22625189172
01915 .0350920555646168 -.007818520895716 .2367553687450305 .02383946598792475 -
.01371975072715 .2454925557485865 .00966492072685004 -.01696669053000245 .250708
7263571735 -.00529149165184164 -.017372742273746 .251382183450061 -.019323208548
2615 -.01512276959801335 .247709870204598 -.0313841984839152 -.01027289981428472
 .2402760936925155 -.0403010697937839 -.00271517888936787 .2299215741510675 -.04
111223999535435 -.001600713856537135 .228512189573894 41 255 1 33 H-.04111223999
535435 -.001600713856537135 .228512189573894 14 255 47 18 51 ?52 13 25 4 31 -0 0
 52 13 21 54 48 37 0 53 54 31 0 -0 -.2032 0 -1 0 0 .2032 .0647573 0 0 1 51 255 4
9 49 0 55 31 56 0 +0 -.2032 .2032 0 -1 0 .0647573 0 0 -1 141 255 50 24 57 57 31
 141 57 46 50 50 31 56 255 46 800 0 58 41 15 59 +R36 31 6 -.00635 -.00635 1 1 0
 0 0 0 14 58 791 60 ?0 61 62 4 46 -0 0 0 61 21 51 41 782 0 1 40 46 63 -0 -.61346
5982236913 .2095435002778035 0 .707106781186548 -.707106781186548 .047625 0 .707
106781186548 .707106781186548 51 15 799 0 1 46 5 64 -0 .0399379941844062 .243137
9941844065 0 .707106781186548 .707106781186548 .047625 0 -.707106781186548 .7071
06781186548 141 59 35 65 65 46 51 36 583 0 66 67 68 69 -0 .0399379941844062 .243
1379941844065 0 .707106781186548 .707106781186548 .041275 0 -.707106781186548 .7
07106781186548 14 66 573 70 ?71 72 73 4 36 -0 0 71 72 21 50 255 67 719 0 74 75 3
6 0 +0 -.647060476143516 .2431379941844065 0 .707106781186548 -.707106781186548
 0 .707106781186548 .707106781186548 50 68 581 0 71 36 76 0 +0 .0399379941844062
 .2431379941844065 0 .707106781186548 .707106781186548 0 -.707106781186548 .7071
06781186548 141 69 29 77 77 36 141 77 46 69 69 36 14 71 568 78 ?74 66 79 4 68 +0
 0 80 66 21 52 255 76 453 0 72 68 81 0 -0 -587939966795061e-33 .0059081867493942
5 0 -995127594528631e-31 1 .2436749 .819152044288992 .573576436351046 0 -1 -9951
27594528631e-31 14 72 446 82 ?66 83 84 4 76 -0 0 66 83 21 52 81 401 0 83 76 85 0
 +-824653618312721e-32 -.60712248195911 .0095447680143954 -863984978020398e-30 0
 1 .159536460157074 .819152044288992 .573576436351047 1 0 863984978020398e-30 14
 83 394 86 ?72 87 88 4 81 +0 0 72 87 21 50 85 343 0 87 81 89 0 +-616297582203916
e-47 -.60712248195911 0 -94498356970981e-29 0 1 1 0 94498356970981e-29 14 87 330
 90 ?83 91 92 4 85 +93 93 83 91 21 50 89 342 0 94 85 95 0 +480051653412584e-31 -
.60712248195911 -.0508 -94498356970981e-29 0 1 1 0 94498356970981e-29 14 94 334
 96 ?97 52 98 4 89 -0 0 97 52 21 51 95 341 0 91 89 99 0 --616297582203916e-47 -.
60712248195911 0 94498356970981e-29 0 -1 .060325 -1 0 -94498356970981e-29 14 91
 322 100 ?87 93 101 4 95 +0 0 87 93 21 51 99 340 0 52 95 102 0 --616297582203916
e-47 -.60712248195911 0 94498356970981e-29 0 -1 .1143 -1 0 -94498356970981e-29 1
4 52 326 103 ?94 47 104 4 99 -0 0 94 47 21 51 102 218 0 105 99 106 107 -.0860494
559872473 -.303561240979555 .2388428517047445 -.923879532511287 -949687733030077
e-30 -.38268343236509 .041275 -877397058823531e-30 1 -363429761350971e-30 14 105
 210 108 ?109 110 111 4 102 -0 0 110 112 21 50 106 217 0 110 102 113 0 +.1299427
775493794 -.303561240979555 .257024060793383 -.923879532511287 -949687733030077e
-30 -.38268343236509 -877397058823531e-30 1 -363429761350971e-30 141 107 114 115
 115 102 38 114 244 0 116 117 118 0 +102 119 120 121 121 141 115 122 107 107 102
 56 122 275 0 109 123 124 125 +R56 102 126 .00635 -.00635 1 1 0 0 0 0 14 109 266
 127 ?128 105 129 4 122 -0 0 128 110 21 59 123 252 0 1 119 122 130 +0 131 51 124
 274 0 1 122 132 133 +0 -.2032 .2032 0 -1 0 .1158875 0 0 -1 141 125 134 135 135
 122 51 56 50 0 97 49 136 137 +0 -.2032 .2032 0 -1 0 .1095375 0 0 -1 38 126 276
 0 1 118 138 139 -124 132 140 141 141 38 118 251 0 142 114 126 0 +113 123 143 14
4 144 38 138 292 0 1 126 145 146 -147 148 149 150 150 141 139 122 139 139 126 51
 132 273 0 1 124 131 151 -.0860494559872473 -.303561240979555 .2388428517047445
 -.923879532511287 -949687733030077e-30 -.38268343236509 .047625 -87739705882353
1e-30 1 -363429761350971e-30 40 21 140 0 1 21 .0030577409520723 .367528274883329
 ??.0985594142900307 -.25971914401172 .2641586295044115 .1059694994799106 -.2560
177256920255 .2501081851730295 .111167474354994 -.2575511911870285 .235936910388
4555 .1142447904887912 -.2635019000970375 .2226432636772275 .1156344111135266 -.
2737981480401155 .210854777768027 .1158849350623256 -.2881412913081865 .20242897
35085245 .1158326071711228 -.3040761295849515 .199633521037444 .1158842090999288
 -.3187029631379615 .2023266515391975 .1157146668528916 -.33168146954402 .209526
810521447 .1144883785512882 -.3426365919183525 .2211533794297045 .11116182578389
44 -.349576598704072 .235956085612312 .1100849857965538 -.350389777153591 .23941
0613891821 .1045034951933454 -.3507697524922085 .253289241845175 .09751582088889
31 -.3465337434130495 .265814513753724 .0900834705606042 -.338014443566959 .2761
03230298847 .0833837547515886 -.325162430524677 .283680196941713 .07967143762703
24 -.309431363765305 .2873568457268445 .0801350899276841 -.2941043897114815 .286
9154706044945 .0839606931278057 -.280496796192872 .2830781238246645 .09046300634
8724 -.2685629222547805 .275631741236841 .0985594142900307 -.25971914401172 .264
1586295044115 41 1 141 H.0985594142900307 -.25971914401172 .2641586295044115 56
 131 291 0 128 132 147 152 +R56 113 138 .00635 -.00635 1 1 0 0 0 0 141 151 126 1
51 151 132 14 128 282 153 ?93 109 154 4 131 -0 0 93 109 21 51 147 290 0 1 131 14
8 155 +0 -.2032 .2032 0 -1 0 .1158875 0 0 -1 141 152 156 157 157 131 51 113 177
 0 158 106 159 160 --451194637207664e-31 -.303561240979555 .29633926 0 -94968773
3030077e-30 -1 .041275 0 1 -949687733030077e-30 14 158 169 161 ?110 112 162 4 11
3 -0 0 112 163 21 50 159 176 0 112 113 164 0 +-451194637207664e-31 -.30356124097
9555 .343849048903778 0 -949687733030077e-30 -1 0 1 -949687733030077e-30 141 160
 118 165 165 113 141 165 131 160 160 113 14 112 163 166 ?158 163 167 4 159 -0 0
 105 158 21 50 164 122 0 168 159 169 0 +0 0 277555756156289e-31 0 -9951275945286
31e-31 1 0 -1 -995127594528631e-31 14 168 109 170 ?163 171 172 4 164 +173 173 16
3 171 21 50 169 121 0 163 164 174 0 +0 112798659301916e-31 -.113350951096222 0 -
995127594528631e-31 1 0 -1 -995127594528631e-31 14 163 113 175 ?112 168 176 4 16
9 -0 0 158 168 21 51 174 120 0 177 169 54 0 -0 0 277555756156289e-31 0 995127594
528631e-31 -1 .060325 0 1 995127594528631e-31 14 177 101 178 ?171 173 179 4 174
 +0 0 171 173 21 51 54 119 0 171 174 48 0 -0 0 277555756156289e-31 0 99512759452
8631e-31 -1 .1143 0 1 995127594528631e-31 14 171 105 180 ?168 177 181 4 54 -0 0
 168 177 21 81 1 180 836 182 171 183 0 178 170 184 15 255 181 417 0 185 171 186
 13 21 19 0 0 0 0 0 0 7 13 14 13 55 187 ?47 0 188 4 189 +0 0 47 0 21 81 1 187 81
6 182 13 190 0 0 51 191 15 188 735 0 192 13 193 54 189 62 0 13 136 156 194 +0 -.
40392248195911 0 1 0 0 .2032 .1095375 0 0 -1 54 136 61 0 195 56 189 0 +0 -.40392
248195911 0 1 0 0 .2032 .0647573 0 0 -1 59 156 231 0 1 189 134 196 +1 131 141 19
4 197 198 198 189 38 197 737 0 199 200 34 0 +189 201 202 203 203 141 198 44 194
 194 189 56 44 784 0 61 30 40 204 +R189 75 17 .00635 -.00635 1 1 0 0 0 0 14 61 7
75 205 ?58 80 206 4 44 -0 0 58 74 21 54 40 783 0 1 44 41 207 +0 -.40392248195911
 0 1 0 0 .2032 .1158875 0 0 -1 141 204 201 208 208 44 51 75 720 0 80 0 67 209 -0
 -.613465982236913 .2095435002778035 0 .707106781186548 -.707106781186548 .04127
5 0 .707106781186548 .707106781186548 14 80 710 210 ?61 74 211 4 75 -0 0 74 71 2
1 141 209 34 212 212 75 38 34 744 0 28 197 29 0 +75 213 214 215 215 141 212 44 2
09 209 75 16 28 741 0 ?216 23 199 34 0 0 1 59 213 745 0 1 201 35 217 +0 44 40 22
 214 0 1 22 .002487957259685235 .354123412536802 ??-.02134162704261275 -.6507972
47618341 .1969115675995785 -.01141164185645376 -.654730279742148 .19471145110805
3 .00186087417852279 -.656171227256985 .193936434894467 .00202361062721172 -.656
164152381095 .193940201743582 .01562380957422705 -.653394835314664 .195444171831
6805 .0274862403016723 -.64677326193297 .1993046614538645 .035970200783824 -.637
809343148368 .2052592423371285 .0405322460718708 -.628001553780258 .213055220101
4155 .04086164034165685 -.618291115709709 .222609018885906 .0365467881373696 -.6
09812445438757 .2330177316090835 .0281093201840929 -.603533405100349 .2423541505
29637 .01646134216319795 -.59954506992223 .249151082042183 .00560838015862675 -.
598026622769145 .251934439045412 -.00809100322537394 -.598232953975488 .25154964
20279535 -.02118236088223145 -.60078459036444 .2469606754997075 -.03169131733226
205 -.605612782818309 .239087788227895 -.0384721061359645 -.612390120860159 .229
611085851019 -.041231790275243 -.620987235907779 .2197349957723195 -.03953151008
41902 -.63111579196999 .2104072839496845 -.0332789761184307 -.641287293974031 .2
028355382458735 -.02349231422571815 -.649552566118572 .1976355678618655 -.021341
62704261275 -.650797247618341 .1969115675995785 41 1 215 H-.02134162704261275 -.
650797247618341 .1969115675995785 59 201 738 0 1 148 213 218 +1 44 59 35 754 0 1
 213 30 219 +1 46 141 217 34 217 217 213 141 219 29 219 219 35 51 148 289 0 1 14
7 201 220 --451194637207664e-31 -.303561240979555 .29633926 0 -949687733030077e-
30 -1 .047625 0 1 -949687733030077e-30 141 218 197 218 218 201 141 220 138 220 2
20 148 17 216 0 211 216 216 0 221 28 0 0 +16 199 734 0 ?192 28 222 197 0 0 1 17
 192 0 188 192 192 0 223 199 0 0 +16 222 364 0 ?224 199 225 226 0 0 1 17 224 0 2
27 224 224 0 228 222 0 0 +16 225 358 0 ?229 222 142 145 0 0 1 31 255 226 402 0 2
22 230 231 0 -1912011058599005e-32 -.60712248195911 -.0221301423895111 -86398497
8020398e-30 0 1 1 0 863984978020398e-30 .1143 31 230 454 0 232 233 226 0 +0 8426
84928625117e-32 -.0846810934857331 0 -995127594528631e-31 1 0 -1 -99512759452863
1e-31 .1143 31 231 349 0 234 226 235 0 +-616297582203916e-47 -.60712248195911 0
 -94498356970981e-29 0 1 1 0 94498356970981e-29 .1143 16 234 312 0 ?236 237 238
 231 0 0 1 31 235 348 0 237 231 239 0 +-616297582203916e-47 -.60712248195911 0 -
94498356970981e-29 0 1 1 0 94498356970981e-29 .060325 16 237 309 0 ?240 241 234
 235 0 0 1 31 239 346 0 238 235 242 0 +480051653412584e-31 -.60712248195911 -.05
08 -94498356970981e-29 0 1 1 0 94498356970981e-29 .060325 16 238 313 0 ?243 234
 232 239 0 0 1 31 242 345 0 241 239 244 0 -0 -.60712248195911 0 -94498356970981e
-29 0 1 1 0 94498356970981e-29 .0647573 16 241 308 0 ?245 246 237 242 0 0 1 31 2
44 220 0 246 242 247 0 +.1299427775493794 -.303561240979555 .257024060793383 -.9
23879532511287 -949687733030077e-30 -.38268343236509 -877397058823531e-30 1 -363
429761350971e-30 .041275 16 246 199 0 ?248 249 241 244 0 0 1 31 247 179 0 249 24
4 250 0 +-451194637207664e-31 -.303561240979555 .343849048903778 0 -949687733030
077e-30 -1 0 1 -949687733030077e-30 .041275 16 249 158 0 ?251 252 246 247 0 0 1
 31 250 128 0 253 247 254 0 +0 0 277555756156289e-31 0 -995127594528631e-31 1 0
 -1 -995127594528631e-31 .1143 16 253 88 0 ?255 256 252 250 0 0 1 31 254 127 0 2
56 250 257 0 +0 0 277555756156289e-31 0 -995127594528631e-31 1 0 -1 -99512759452
8631e-31 .060325 16 256 89 0 ?258 259 253 254 0 0 1 31 257 125 0 252 254 260 0 +
0 112798659301916e-31 -.113350951096222 0 -995127594528631e-31 1 0 -1 -995127594
528631e-31 .060325 16 252 92 0 ?261 253 249 257 0 0 1 31 260 124 0 259 257 262 0
 +0 0 202209927208218e-31 0 -995127594528631e-31 1 0 -1 -995127594528631e-31 .10
95375 16 259 87 0 ?263 264 256 260 0 0 1 31 262 35 0 264 260 265 0 +0 0 0 0 0 1
 1 0 0 .0647573 16 264 24 0 ?266 267 259 262 0 0 1 31 265 6 0 267 262 268 0 +0 -
.2032 .2032 0 -1 50532154980743e-29 1 0 0 .1095375 16 267 5 0 ?269 270 264 265 0
 0 1 31 268 13 0 270 265 271 0 +0 -.2032 .2032 0 -1 50532154980743e-29 1 0 0 .06
47573 16 270 10 0 ?272 273 267 268 0 0 1 31 271 47 0 273 268 274 0 +0 -.40392248
195911 .2032 0 -1 50532154980743e-29 1 0 0 .0647573 16 273 42 0 ?275 276 270 271
 0 0 1 31 274 48 0 276 271 277 0 +0 -.40392248195911 .2032 0 -1 50532154980743e-
29 1 0 0 .1095375 16 276 46 0 ?278 279 273 274 0 0 1 31 277 60 0 279 274 280 0 +
0 -.60712248195911 2220446049250315e-31 0 -101064309961486e-29 -1 1 0 0 .1095375
 16 279 58 0 ?281 282 276 277 0 0 1 38 280 230 0 282 277 117 0 +56 156 283 284 2
84 16 282 227 0 ?285 286 279 280 0 0 1 38 117 237 0 286 280 114 0 +56 134 287 28
8 288 40 21 283 0 1 21 .003060604760415165 .3786413192290765 ??-451194637207664e
-31 -.255936240979555 .3127375 .01366989217648592 -.258185244391827 .31188117571
1957 .0257822265065538 -.26452133613826 .309660042751329 .0358887690703746 -.274
812769767508 .306691353072918 .04289150650750195 -.2891050864276775 .30399078616
50405 .04498553225909235 -.305296155761442 .303073749271849 .04205148577386975 -
.3205567399927855 .3043441370048705 .034579127782041 -.33405341094378 .307136268
1073515 .0225769845130549 -.3447632969017 .310385557219932 .00780543890899346 -.
3504648362377715 .3124590455279925 -.00647624615565136 -.3506907974847275 .31254
5883059132 -.019142153735798 -.3466658050928725 .311051944148472 -.0303339849563
818 -.3387494997515965 .3084535665092445 -.03936673815448665 -.326659128922699 .
3054189993754885 -.0444374703365259 -.311168225753064 .303318805108433 -.0443057
365078627 -.295137975253884 .303377171145655 -.0394341781302537 -.28059247780912
 .305393001235121 -.02999667817502965 -.2680508016757965 .308550193187833 -.0164
3280923719015 -.2592229139365725 .3114978609522095 -.003195221173700575 -.256056
365720037 .312690887602125 -428547393479775e-31 -.255936240979555 .3127375 41 1
 284 H-428547393479775e-31 -.255936240979555 .3127375 16 286 234 0 ?289 116 282
 117 0 0 1 59 134 238 0 1 156 119 290 +1 122 40 21 287 0 1 21 .00306060476041517
 .3786413192290765 ??.101199454292455 -.255936240979555 .245118186472691 .105639
555067698 -.258185244391827 .2321611517614335 .1082226854617714 -.26452133613826
 .2201208231978375 .1093475802271768 -.274812769767508 .2096475270229085 .109532
413333203 -.2891050864276775 .2021443790195575 .1094865306791052 -.3052961557614
42 .19985881666122 .1095374049243136 -.3205567399927855 .203055678494461 .109257
4500978102 -.33405341094378 .2110277394166195 .1076663804222216 -.3447632969017
 .2233597230394525 .103929208057841 -.3504648362377715 .2378003413092995 .098544
071215019 -.3506907974847275 .2510281291147715 .0923168186458481 -.3466658050928
725 .2621581962186735 .0856333023412874 -.338749499751596 .2715037439411315 .079
373042878821 -.326659128922699 .278687641176598 .0754922311851641 -.311168225753
064 .2825686773036805 .0755965667260587 -.2951379752538835 .2824693068310965 .07
9323215567647 -.28059247780912 .2787399985322915 .0858516554687774 -.26805080167
57965 .271229090538683 .093765613306211 -.2592229139365725 .259825733262891 .099
9336318461796 -.256056365720037 .24805234812451 .101199454292455 -.2559362409795
55 .245118186472691 41 1 288 H.101199454292455 -.255936240979555 .24511818647269
1 59 119 245 0 1 134 123 291 +0 122 141 290 117 290 290 134 141 291 114 291 291
 119 17 289 0 292 289 289 0 293 286 0 0 +16 116 241 0 ?294 142 286 114 0 0 1 17
 294 0 111 294 294 0 295 116 0 0 +16 142 248 0 ?296 225 116 118 0 0 1 17 296 0 1
62 296 296 0 297 142 0 0 +15 162 249 0 296 158 298 17 297 0 154 297 297 0 296 14
2 0 0 -15 154 283 0 297 128 299 15 299 284 0 300 128 0 17 300 0 299 300 300 0 28
5 282 0 0 -17 285 0 301 285 285 0 300 282 0 0 +15 301 228 0 285 97 302 14 97 43
 303 ?195 94 292 4 56 +0 0 195 94 21 15 302 44 0 269 97 304 17 269 0 302 269 269
 0 305 267 0 0 +15 304 45 0 306 97 0 17 306 0 304 306 306 0 278 276 0 0 -17 278
 0 307 278 278 0 306 276 0 0 +15 307 56 0 278 13 0 17 305 0 308 305 305 0 269 26
7 0 0 -15 308 17 0 305 47 0 81 1 303 824 182 97 309 0 96 310 311 14 195 51 310 ?
55 97 312 4 136 -0 0 55 97 21 15 292 235 0 289 97 301 81 1 310 826 182 195 313 0
 303 314 315 14 55 39 314 ?53 195 316 4 49 -0 0 53 195 21 15 312 52 0 317 195 31
8 17 317 0 312 317 317 0 275 273 0 0 -15 318 53 0 245 195 0 17 245 0 318 245 245
 0 319 241 0 0 +17 319 0 320 319 319 0 245 241 0 0 -15 320 321 0 319 93 0 14 93
 318 321 ?91 128 322 4 85 +87 87 91 128 21 81 1 321 854 182 93 323 0 153 100 324
 15 322 320 0 325 93 320 17 325 0 322 325 325 0 240 237 0 0 -17 240 0 101 240 24
0 0 325 237 0 0 +15 101 324 0 240 91 326 15 326 325 0 327 91 0 17 327 0 326 327
 327 0 243 238 0 0 -17 243 0 98 243 243 0 327 238 0 0 +15 98 336 0 243 94 328 15
 328 360 0 329 94 0 17 329 0 328 329 329 0 229 225 0 0 -17 229 0 88 229 229 0 32
9 225 0 0 +15 88 383 0 229 83 227 15 227 384 0 224 83 0 80 255 1 182 0 330 8001
 0 0 0 0 3 5 0 0 0 FFFFTFTFFFFFFF2 81 1 323 853 331 93 0 321 332 333 334 81 1 15
3 852 182 128 332 0 127 321 335 81 1 100 856 182 91 333 0 321 90 336 83 255 3 32
4 0 1 0 81 1 333 855 331 91 0 100 323 337 338 81 1 90 858 182 87 337 0 100 86 33
9 83 3 336 0 1 0 81 1 337 857 331 87 0 90 333 340 341 81 1 86 860 182 83 340 0 9
0 82 342 83 3 339 0 1 0 81 1 340 859 331 83 0 86 337 343 344 81 1 82 862 182 72
 343 0 86 70 345 83 3 342 0 1 0 81 1 343 861 331 72 0 82 340 346 347 81 1 70 864
 182 66 346 0 82 78 348 83 3 345 0 1 0 81 1 346 863 331 66 0 70 343 349 350 81 1
 78 866 182 71 349 0 70 351 352 83 3 348 0 1 0 81 1 349 865 331 71 0 78 346 353
 354 81 1 351 868 182 74 353 0 78 210 355 83 3 352 0 1 0 14 74 700 351 ?80 71 35
6 4 67 -0 0 61 80 21 81 1 353 867 331 74 0 351 349 357 358 81 1 210 870 182 80 3
57 0 351 205 359 83 3 355 0 1 0 81 1 357 869 331 80 0 210 353 360 361 81 1 205 8
72 182 61 360 0 210 60 362 83 3 359 0 1 0 81 1 360 871 331 61 0 205 357 363 364
 81 1 60 874 182 58 363 0 205 0 365 83 3 362 0 1 0 81 1 363 873 331 58 0 60 360
 0 366 83 3 365 0 1 0 80 1 331 367 368 8015 0 0 0 0 3 5 0 0 0 FFFFTFFFFFFFFF2 83
 1 366 0 79 255 21 368 SDL/TYSA_TRANSLUCENCY83 1 364 0 83 1 361 0 83 1 358 0 15
 356 704 0 369 74 0 17 369 0 356 369 369 0 370 371 0 0 -17 370 0 372 370 370 0 3
69 371 0 0 +16 371 692 0 ?370 373 0 374 0 0 1 16 373 553 0 ?375 376 371 233 0 0
 1 31 374 722 0 371 0 233 0 +0 -.647060476143516 .2431379941844065 0 .7071067811
86548 -.707106781186548 0 .707106781186548 .707106781186548 .041275 31 233 584 0
 373 374 230 0 +0 .0399379941844062 .2431379941844065 0 .707106781186548 .707106
781186548 0 -.707106781186548 .707106781186548 .041275 17 375 0 79 375 375 0 377
 373 0 0 +16 376 431 0 ?378 232 373 200 0 0 1 17 378 0 176 378 378 0 379 376 0 0
 +16 232 426 0 ?185 238 376 230 0 0 1 31 200 413 0 376 145 197 0 -0 112798659301
916e-31 -.113350951096222 0 -995127594528631e-31 1 0 -1 -995127594528631e-31 .07
33552 31 145 361 0 225 138 200 0 +523760180416837e-31 -.60712248195911 -.0508 -9
4498356970981e-29 0 1 1 0 94498356970981e-29 .0733552 17 185 0 181 185 185 0 380
 232 0 0 +17 380 0 381 380 380 0 185 232 0 0 -15 381 436 0 380 72 0 15 176 411 0
 378 163 382 17 379 0 84 379 379 0 378 376 0 0 -15 84 435 0 379 72 381 15 382 11
5 0 261 163 0 17 261 0 382 261 261 0 383 252 0 0 +17 383 0 384 383 383 0 261 252
 0 0 -15 384 104 0 383 177 0 15 79 572 0 375 71 0 17 377 0 385 377 377 0 375 373
 0 0 -15 385 561 0 377 66 0 15 372 715 0 370 80 0 83 1 354 0 83 1 350 0 83 1 347
 0 83 1 344 0 83 1 341 0 83 1 338 0 81 1 332 851 331 128 0 153 386 323 387 81 1
 127 850 182 109 386 0 108 153 388 83 3 335 0 1 0 81 1 386 849 331 109 0 127 389
 332 390 81 1 108 848 182 105 389 0 391 127 392 83 3 388 0 1 0 81 1 389 847 331
 105 0 108 393 386 394 81 1 391 846 182 110 393 0 161 108 395 83 3 392 0 1 0 14
 110 204 391 ?105 158 396 4 106 -0 0 109 105 21 81 1 393 845 331 110 0 391 397 3
89 398 81 1 161 844 182 158 397 0 166 391 399 83 3 395 0 1 0 81 1 397 843 331 15
8 0 161 400 393 401 81 1 166 842 182 112 400 0 175 161 402 83 3 399 0 1 0 81 1 4
00 841 331 112 0 166 403 397 404 81 1 175 840 182 163 403 0 170 166 405 83 3 402
 0 1 0 81 1 403 839 331 163 0 175 406 400 407 81 1 170 838 182 168 406 0 180 175
 408 83 3 405 0 1 0 81 1 406 837 331 168 0 170 183 403 409 83 3 408 0 1 0 81 1 1
83 835 331 171 0 180 410 406 411 83 1 409 0 81 1 410 833 331 177 0 178 412 183 4
13 83 1 411 0 81 1 178 834 182 177 410 0 414 180 415 81 1 412 831 331 173 0 414
 416 410 417 83 1 413 0 14 173 97 414 ?177 53 418 4 164 +168 168 177 53 21 81 1
 414 832 182 173 412 0 419 178 420 81 1 416 829 331 53 0 419 421 412 422 83 1 41
7 0 14 53 21 419 ?173 55 423 4 48 +0 0 173 55 21 81 1 419 830 182 53 416 0 314 4
14 424 81 1 421 827 331 55 0 314 313 416 425 83 1 422 0 81 1 314 828 182 55 421
 0 310 419 426 81 1 313 825 331 195 0 310 309 421 427 83 1 425 0 81 1 309 823 33
1 97 0 303 428 313 429 83 1 427 0 81 1 428 821 331 94 0 96 430 309 431 83 1 429
 0 81 1 96 822 182 94 428 0 103 303 432 81 1 430 819 331 52 0 103 433 428 434 83
 1 431 0 81 1 103 820 182 52 430 0 51 96 435 81 1 433 817 331 47 0 51 190 430 43
6 83 1 434 0 81 1 51 818 182 47 433 0 187 103 437 81 1 190 815 331 13 0 187 0 43
3 438 83 1 436 0 83 1 438 0 83 3 437 0 1 0 83 3 435 0 1 0 83 3 432 0 1 0 83 3 42
6 0 1 0 83 3 424 0 1 0 15 423 15 0 272 53 439 17 272 0 423 272 272 0 440 270 0 0
 +15 439 26 0 441 53 0 17 441 0 439 441 441 0 266 264 0 0 -17 266 0 172 266 266
 0 441 264 0 0 +15 172 111 0 266 168 442 15 442 112 0 443 168 0 17 443 0 442 443
 443 0 258 256 0 0 -17 258 0 179 258 258 0 443 256 0 0 +15 179 103 0 258 177 384
 17 440 0 316 440 440 0 272 270 0 0 -15 316 40 0 440 55 444 15 444 41 0 275 55 0
 17 275 0 444 275 275 0 317 273 0 0 +83 3 420 0 1 0 15 418 99 0 255 173 445 17 2
55 0 418 255 255 0 446 253 0 0 +15 445 100 0 447 173 0 17 447 0 445 447 447 0 26
3 259 0 0 -17 263 0 448 263 263 0 447 259 0 0 +15 448 28 0 263 47 308 17 446 0 1
86 446 446 0 255 253 0 0 -15 186 107 0 446 171 0 83 3 415 0 1 0 83 1 407 0 83 1
 404 0 83 1 401 0 83 1 398 0 15 396 206 0 449 110 0 17 449 0 396 449 449 0 248 2
46 0 0 -17 248 0 450 248 248 0 449 246 0 0 +15 450 213 0 248 105 0 83 1 394 0 83
 1 390 0 83 1 387 0 83 1 334 0 79 15 330 SDL/TYSA_COLOUR83 3 315 0 1 0 83 3 311
 0 1 0 15 298 172 0 251 158 0 17 251 0 298 251 251 0 451 249 0 0 +17 451 0 167 4
51 451 0 251 249 0 0 -15 167 165 0 451 112 0 15 111 242 0 294 105 450 17 295 0 1
29 295 295 0 294 116 0 0 -15 129 267 0 295 109 452 15 452 268 0 293 109 0 17 293
 0 452 293 293 0 289 286 0 0 -17 281 0 92 281 281 0 453 279 0 0 +15 92 332 0 281
 87 454 17 453 0 193 453 453 0 281 279 0 0 -15 193 57 0 453 13 307 15 454 333 0
 236 87 0 17 236 0 454 236 236 0 455 234 0 0 +17 455 0 104 455 455 0 236 234 0 0
 -15 104 328 0 455 52 456 15 456 366 0 228 52 0 17 228 0 456 228 228 0 224 222 0
 0 -17 223 0 457 223 223 0 192 199 0 0 -15 457 777 0 223 61 0 15 211 742 0 216 8
0 372 17 221 0 206 221 221 0 216 28 0 0 -15 206 776 0 221 61 457 141 208 213 204
 204 44 141 207 17 207 207 40 40 21 202 0 1 21 .002751047825356965 .357929629972
5655 ??-.02327564171665355 -.649724322926216 .189282433669304 -.0256212278436441
5 -.64837136209201 .19015298116959 -.036294773743494 -.639342287163881 .19634208
05021715 -.0431139230106816 -.628100852452968 .2051749104132565 -.04496828549512
8 -.616716500941755 .21581730868309 -.0419585140682015 -.606853088593467 .226865
646783687 -.0345632386078938 -.598910714024743 .237308918805058 -.02310194258494
155 -.593145363283684 .245895165064247 -.0088242237494858 -.590058519331571 .250
869624830059 .00611662114244329 -.5898076486615 .251285848264282 .01795309709052
675 -.591649429595522 .248272104331491 .03065663476347325 -.596439431701106 .240
8799290162955 .0398587204659405 -.603851492715059 .230635259524704 .044564591942
69215 -.613645715318968 .2190529146421445 .04420534740188225 -.62462353850083 .2
08220211979442 .03922988178214735 -.635516541855225 .199191089587436 .0299770903
1847295 -.645344239262288 .192151495942723 .0170396658686249 -.652542820896506 .
187511070416369 .00220699367667453 -.655540558177881 .185685702631732 -.01244578
432184364 -.653989297521207 .186623027811639 -.02327564171665355 -.6497243229262
16 .189282433669304 41 1 203 H-.02327564171665355 -.649724322926216 .18928243366
9304 141 196 280 196 196 156 83 3 191 0 1 0 83 3 184 0 1 0 141 157 123 152 152 1
31 141 155 138 155 155 147 141 146 131 146 146 138 40 21 149 0 1 21 .00305774095
20723 .367528274883329 ??-.01860137517666235 -.25971914401172 .31758488316988 -.
002784740401628415 -.2560177256920255 .319054036947987 .0122969891879772 -.25755
11911870285 .3184332274700345 .0257563551974708 -.2635019000970375 .316189038509
015 .0371792808386375 -.2737981480401155 .3129616223120435 .0450595803035544 -.2
88141291308187 .30996866056628 .0476222166086799 -.3040761295849515 .30885054255
19715 .0451538356629601 -.318702963137962 .309928832942052 .0384368751394055 -.3
3168146954402 .31252757788302 .02722604587540745 -.342636591918353 .315843930516
6515 .01227711197654842 -.3495765987040725 .3184353469112895 .00867345518216488
 -.350389777153591 .318762467226401 -.00628466910502696 -.3507697524922085 .3189
169632789 -.0205305786475514 -.3465337434130495 .3172544080544315 -.032880350613
57015 -.338014443566959 .3143251330697905 -.0424444252550994 -.325162430524677 .
3110349823620065 -.0472618480751676 -.309431363765305 .309012241129133 -.0466766
385796315 -.2941043897114815 .3092716930531255 -.04166739746710905 -.28049679619
2872 .311337600512347 -.03229950946127675 -.2685629222547805 .314495347363719 -.
01860137517666235 -.25971914401172 .31758488316988 41 1 150 H-.01860137517666235
 -.25971914401172 .31758488316988 40 21 143 0 1 21 .002756507018694015 .37399235
006995 ??-473863353279933e-31 -.262286240979555 .3190875 -.01286933933342504 -.2
643438248214095 .3181322095680935 -.02426667817998495 -.270173309700288 .3156540
435569675 -.03367613464369275 -.279696128776595 .312378936209069 -.0398235551723
313 -.2927118134169465 .3095883763985445 -.04117472317402405 -.306436618614317 .
308901369209118 -.03846409329986655 -.3185325185342315 .310252240258448 -.032242
3384283075 -.3293305490353505 .3129536874273185 -.0220266893483159 -.33846755246
26205 .316266217548844 -.00867251433505517 -.343914842059363 .3186546563137675 .
00481555097121173 -.344554363498383 .318954218152494 .01686823446636615 -.341232
029277488 .3174413706231455 .02752549427435475 -.3343179116373565 .3146504520424
96 .0361205167281132 -.323534570604184 .311333699840101 .04078798188136435 -.309
883120371436 .309100809319828 .04068391286365405 -.296601006852559 .309154092062
222 .03686144052041925 -.284990839051767 .3110003011963815 .0293993202213416 -.2
745904695793485 .3140115098873505 .01794037191212475 -.266389091718924 .31722370
31941595 .004205614263297275 -.2625010603459005 .3189858567375715 -5182876749616
93e-31 -.262286240979555 .3190875 41 1 144 H-518287674961693e-31 -.2622862409795
55 .3190875 141 137 117 458 459 56 141 458 280 460 137 56 141 459 122 137 460 56
 141 460 131 459 458 56 141 135 119 125 125 122 141 133 126 133 133 124 141 130
 118 130 130 123 40 21 120 0 1 21 .002756507018694 .3739923500699485 ??.10706608
93239016 -.262286240979555 .2475482262682095 .1012586330978734 -.264343824821409
5 .2590723716539155 .0946075334923994 -.270173309700288 .26865378666424 .0879808
85750677 -.2796961287765945 .2760936615818575 .0830502286693941 -.29271181341694
65 .280705236579495 .0818984471798051 -.306436618614317 .281690646771934 .084183
8024374567 -.3185325185342315 .2797033072808265 .0890605766945194 -.329330549035
3505 .274988954373627 .0960303151283923 -.3384675524626205 .266818575674023 .103
3473663484406 -.343914842059363 .2553949426502525 .1087857845273276 -.3445543634
98383 .2430482325332665 .1120004579482884 -.341232029277488 .2313340632550805 .1
135003421576482 -.3343179116373565 .22042000074393 .113725235377303 -.3235345706
04184 .211209969300311 .1134484751125752 -.309883120371436 .206043303568119 .113
4578764588088 -.296601006852559 .206159841226295 .1137007544541642 -.28499083905
1767 .210397858836124 .1136271187230986 -.274590469579349 .2184442987270065 .112
2096487034638 -.266389091718924 .2302602396940665 .1085816020956086 -.2625010603
459005 .2436238481361685 .1070660893239016 -.262286240979555 .2475482262682095 4
1 1 121 H.1070660893239016 -.262286240979555 .2475482262682095 15 73 751 0 27 66
 385 17 27 0 73 27 27 0 461 23 0 0 +17 461 0 462 461 461 0 27 23 0 0 -15 462 793
 0 461 58 0 141 65 30 59 59 46 141 64 6 64 64 15 141 63 17 63 63 41 15 62 792 0
 26 58 462 17 26 0 62 26 26 0 22 8 0 0 -15 25 760 0 22 47 448 141 45 24 45 45 30
 141 39 44 39 39 17 40 20 42 0 1 20 .00284201275251457 .350063697229947 ??-.0131
6727906513894 -.659045383332531 .1903963475176695 -.02710651641429015 -.65324445
1987618 .1939436819928195 -.0383988185981893 -.643943391956266 .200179440263639
 -.0456132808663733 -.632407024743929 .2091160511757465 -.0475751426252804 -.620
781832690576 .2199403989895235 -.04439089169534365 -.610763701864008 .2312375048
471705 -.0365669046141485 -.602736053020717 .241964518025487 -.02444118563334395
 -.596930854434103 .250814411430044 -.00933577295235454 -.593829940897675 .25595
2655105767 .00647120787533856 -.5935781382895 .256382923525056 .0189938563421515
 -.59542749345461 .2532686585098035 .03243383098164565 -.60024546453201 .2456420
910979755 .04216937092773415 -.607725694044185 .2351044830036555 .04714804654806
56 -.617657239930071 .223242894665545 .046767976236774 -.628849542374083 .212207
23150759 .04150407782748925 -.640011467675455 .2030571178100415 .031714892655775
75 -.650122963357585 .1959549600292495 .0180274725856466 -.657550849278038 .1912
881578683055 .002334935339090445 -.660648880740973 .1894554733837045 -.013167279
06513894 -.659045383332531 .1903963475176695 41 1 43 H-.01316727906513894 -.6590
45383332531 .1903963475176695 40 22 37 0 1 22 .002463698012969245 .3509860247317
185 ??-.03769615048849395 .00412197096614161 .231096994135376 -.0369523818688897
5 .00316581682767717 .232371473874395 -.0288607366723014 -.003200237176178405 .2
417294525838015 -.02877642933452705 -.003244975724319025 .241800997552807 -.0177
17608610918 -.00728766733030126 .2486325748943 -.00485181215226833 -.00914346469
109452 .252023518046307 .0088618451881939 -.00880948322875499 .2514009250290445
 .02185860214738225 -.00612408057593598 .2465901019814375 .03217619394282255 -.0
0117748563723066 .2385825517903725 .03873640742465355 .00570285137182288 .229058
06731367 .04125929063430105 .01438806747997954 .2191983850600085 .03946123007713
575 .0241731812542896 .2102596225478515 .03379268590600495 .0335615115868228 .20
32449483901555 .02418942719705515 .04199114234173495 .1978942664009635 .01222389
64801654 .0473855003477528 .1948324380131655 -.00115394687150993 .04907259006541
15 .193923742062769 -.0147942578670197 .0465718345535369 .1952786137060935 -.026
8257323891253 .04015720087645125 .1989949262100855 -.03554865659152285 .03128981
247128445 .2048277613103155 -.04036400910822805 .0215048931955969 .2125087959746
92 -.04097679400345265 .01175926267295476 .221963258418043 -.03769615048849395 .
004121970966141605 .231096994135376 41 1 38 H-.03769615048849395 .00412197096614
1605 .231096994135376 19 14 1 0 1 0 7 4 S141 18 46 18 18 6 40 20 19 0 1 20 .0028
42552651560685 .349657760669603 ??-.0426373636948728 .001165381670237354 .234371
9090318345 -.04728091615783 .01122049376948644 .222502027321511 -.04657385666334
01 .0224430545202819 .211570634650007 -.0410176806825264 .03357150871443595 .202
546065067164 -.03095276814129845 .0435696835430948 .195582443543442 -.0170702975
388689 .050763620772571 .1910868274870595 -.001331477159434534 .0535609629886917
 .189435369139489 .01410449593865238 .0516741974504134 .190543740910505 .0279108
775350636 .0456293635679482 .19425604517475 .0389915606607749 .0361397087557972
 .200666751221181 .0455321885505413 .02548960884709255 .2089431949550485 .047606
8738088089 .0142641968969004 .2193222556430875 .0446958547207541 .00415245014552
6945 .230608468539966 .0371263776263337 -.003989796208584745 .2413948623617265 .
02522146401621025 -.0099328638495801 .2503988852550815 .01022520598637758 -.0131
9489924858572 .255786341048875 -.00559824479107884 -.01360246336320232 .25648251
6718415 -.02044339455105925 -.01134307057834754 .2526879781423465 -.033203572309
0697 -.00646389674563641 .2450199185741245 -.0426373636948728 .00116538167023735
4 .2343719090318345 41 1 20 H-.0426373636948728 .001165381670237354 .23437190903
18345 141 16 6 16 16 5 74 4 CI16 index_map_offset0 0 1 dCCZ20 12 3 0 0 2 363 60
 0 0 0 0 0 0 0 0 0 0 0 0 0 0 0 0 0 80 2 9 463 464 8004 0 0 0 0 3 5 0 0 0 FFTFFFF
FFFFFFF2 3 83 1 10 7830.64369935348 84 255 8 11 Kg/Cu M 79 16 464 SDL/TYSA_DENSI
TY1 0 
